
<svg width="800" height="800" xmlns="http://www.w3.org/2000/svg">
  <!-- Layer of scattered stars -->
  <circle cx="10" cy="20" r="1.2" fill="white" opacity="0.4"/>
  <circle cx="60" cy="80" r="1.6" fill="white" opacity="0.6"/>
  <circle cx="120" cy="40" r="1.7" fill="white" opacity="0.7"/>
  <circle cx="180" cy="90" r="1.3" fill="white" opacity="0.5"/>
  <circle cx="240" cy="60" r="1.5" fill="white" opacity="0.6"/>
  <circle cx="300" cy="100" r="1.4" fill="white" opacity="0.5"/>
  <circle cx="360" cy="30" r="1.5" fill="white" opacity="0.5"/>
  <circle cx="420" cy="70" r="1.8" fill="white" opacity="0.6"/>
  <circle cx="480" cy="20" r="1.4" fill="white" opacity="0.4"/>
  <circle cx="540" cy="60" r="1.6" fill="white" opacity="0.6"/>
  <!-- Mid-screen layer -->
  <circle cx="80" cy="200" r="1.5" fill="white" opacity="0.5"/>
  <circle cx="200" cy="250" r="1.7" fill="white" opacity="0.6"/>
  <circle cx="320" cy="210" r="1.8" fill="white" opacity="0.7"/>
  <circle cx="400" cy="270" r="1.6" fill="white" opacity="0.5"/>
  <circle cx="520" cy="230" r="1.5" fill="white" opacity="0.6"/>
  <circle cx="600" cy="250" r="1.7" fill="white" opacity="0.7"/>
  <circle cx="700" cy="280" r="1.6" fill="white" opacity="0.6"/>
  <!-- Bottom stars -->
  <circle cx="140" cy="600" r="1.4" fill="white" opacity="0.5"/>
  <circle cx="300" cy="680" r="1.7" fill="white" opacity="0.6"/>
  <circle cx="500" cy="740" r="1.6" fill="white" opacity="0.6"/>
  <circle cx="620" cy="720" r="1.8" fill="white" opacity="0.7"/>
  <circle cx="700" cy="680" r="1.5" fill="white" opacity="0.5"/>
</svg>
