
<svg width="800" height="800" xmlns="http://www.w3.org/2000/svg">
  <!-- Scatter even more stars across all zones -->
  <g opacity="0.5">
    <circle cx="10" cy="20" r="1.2" fill="white"/>
    <circle cx="30" cy="40" r="1.0" fill="white"/>
    <circle cx="60" cy="80" r="1.6" fill="white"/>
    <circle cx="90" cy="30" r="1.5" fill="white"/>
    <circle cx="120" cy="60" r="1.4" fill="white"/>
    <circle cx="150" cy="90" r="1.7" fill="white"/>
    <circle cx="180" cy="20" r="1.5" fill="white"/>
    <circle cx="210" cy="50" r="1.3" fill="white"/>
    <circle cx="240" cy="10" r="1.4" fill="white"/>
    <circle cx="270" cy="70" r="1.6" fill="white"/>
    <circle cx="300" cy="90" r="1.5" fill="white"/>
    <circle cx="330" cy="60" r="1.4" fill="white"/>
    <circle cx="360" cy="40" r="1.3" fill="white"/>
    <circle cx="390" cy="80" r="1.5" fill="white"/>
    <circle cx="420" cy="20" r="1.7" fill="white"/>
    <circle cx="450" cy="70" r="1.3" fill="white"/>
    <circle cx="480" cy="30" r="1.6" fill="white"/>
    <circle cx="510" cy="90" r="1.5" fill="white"/>
    <circle cx="540" cy="50" r="1.4" fill="white"/>
    <circle cx="570" cy="10" r="1.2" fill="white"/>
    <circle cx="600" cy="70" r="1.7" fill="white"/>
    <circle cx="630" cy="40" r="1.5" fill="white"/>
    <circle cx="660" cy="80" r="1.3" fill="white"/>
    <circle cx="690" cy="20" r="1.4" fill="white"/>
    <circle cx="720" cy="60" r="1.5" fill="white"/>
    <circle cx="750" cy="90" r="1.6" fill="white"/>
    <circle cx="780" cy="30" r="1.4" fill="white"/>
  </g>
</svg>
